M48
INCH
T01C0.013
T02C0.0191
T03C0.025
T04C0.042
%
T01
X+025040Y+008990
X+024490Y+008243
X+025040Y+006790
X+024490Y+006038
X+025040Y+004590
X+024490Y+010440
X+023690Y+011290
X+021690Y+011290
X+011390Y+006190
X+010940Y+005740
X+009640Y+005790
X+009640Y+006140
X+008490Y+005790
X+008240Y+006140
T02
X+014234Y+007934
X+022640Y+005440
T03
X+006690Y+008640
X+006690Y+007380
X+004492Y+006573G85X+004911Y+006573
X+004492Y+009447G85X+004911Y+009447
T04
X+023190Y+006940
X+023190Y+007940
X+022190Y+007940
X+022190Y+006940
X+020190Y+006940
X+019190Y+006940
X+019190Y+007940
X+020190Y+007940
X+020190Y+009940
X+019190Y+009940
X+019190Y+010940
X+020190Y+010940
X+017990Y+010940
X+016990Y+010940
X+015990Y+010940
X+014990Y+010940
X+014990Y+009940
X+015990Y+009940
X+016990Y+009940
X+017990Y+009940
X+018000Y+005940
X+017000Y+005940
X+016000Y+005940
X+015000Y+005940
X+015000Y+004940
X+016000Y+004940
X+017000Y+004940
X+018000Y+004940
X+019190Y+005440
X+020190Y+005440
X+022190Y+008940
X+022190Y+009940
X+023190Y+009940
X+023190Y+008940
X+013790Y+010940
X+012790Y+010940
X+011790Y+010940
X+010790Y+010940
X+009790Y+010940
X+008790Y+010940
X+007790Y+010940
X+006790Y+010940
X+005790Y+010940
X+004790Y+010940
X+006290Y+005940
X+007290Y+005940
X+006790Y+004940
X+007790Y+004940
X+008790Y+004940
X+009790Y+004940
X+010790Y+004940
X+011790Y+004940
X+012790Y+004940
X+013790Y+004940
X+005790Y+004940
X+004790Y+004940
T00
M30
