G04 DipTrace 2.4.0.2*
%INTopPaste.gbr*%
%MOIN*%
%ADD38C,-0.01*%
%FSLAX44Y44*%
G04*
G70*
G90*
G75*
G01*
%LNTopPaste*%
%LPD*%
D38*
X6218Y7695D3*
G36*
X8194Y7125D2*
X7586D1*
Y7655D1*
X8194D1*
Y7125D1*
G37*
G36*
Y8227D2*
X7586D1*
Y8757D1*
X8194D1*
Y8227D1*
G37*
G36*
X25285Y5084D2*
X24795D1*
Y5496D1*
X25285D1*
Y5084D1*
G37*
G36*
Y5832D2*
X24795D1*
Y6244D1*
X25285D1*
Y5832D1*
G37*
G36*
X25280Y9489D2*
X24790D1*
Y9901D1*
X25280D1*
Y9489D1*
G37*
G36*
Y10237D2*
X24790D1*
Y10649D1*
X25280D1*
Y10237D1*
G37*
G36*
Y7289D2*
X24790D1*
Y7701D1*
X25280D1*
Y7289D1*
G37*
G36*
Y8037D2*
X24790D1*
Y8449D1*
X25280D1*
Y8037D1*
G37*
G36*
X8817Y8703D2*
Y8977D1*
X9563D1*
Y8703D1*
X8817D1*
G37*
G36*
Y7797D2*
Y8071D1*
X9563D1*
Y7797D1*
X8817D1*
G37*
G36*
Y6892D2*
Y7166D1*
X9563D1*
Y6892D1*
X8817D1*
G37*
G36*
X11100Y7345D2*
Y8524D1*
X11847D1*
Y7345D1*
X11100D1*
G37*
G36*
X16410Y7669D2*
Y8159D1*
X16822D1*
Y7669D1*
X16410D1*
G37*
G36*
X17158D2*
Y8159D1*
X17570D1*
Y7669D1*
X17158D1*
G37*
G36*
X22034Y5745D2*
Y6235D1*
X22446D1*
Y5745D1*
X22034D1*
G37*
G36*
X22782D2*
Y6235D1*
X23194D1*
Y5745D1*
X22782D1*
G37*
G36*
X15996Y8535D2*
Y8045D1*
X15584D1*
Y8535D1*
X15996D1*
G37*
G36*
X15248D2*
Y8045D1*
X14836D1*
Y8535D1*
X15248D1*
G37*
G36*
X15996Y7785D2*
Y7295D1*
X15584D1*
Y7785D1*
X15996D1*
G37*
G36*
X15248D2*
Y7295D1*
X14836D1*
Y7785D1*
X15248D1*
G37*
G36*
X22084Y11045D2*
Y11535D1*
X22496D1*
Y11045D1*
X22084D1*
G37*
G36*
X22832D2*
Y11535D1*
X23244D1*
Y11045D1*
X22832D1*
G37*
M02*
