G04 DipTrace 2.4.0.2*
%INTopSilk.gbr*%
%MOIN*%
%ADD10C,0.0098*%
%ADD12C,0.003*%
%ADD21C,0.0154*%
%ADD41C,0.0077*%
%ADD42C,0.0046*%
%ADD43C,0.0062*%
%FSLAX44Y44*%
G04*
G70*
G90*
G75*
G01*
%LNTopSilk*%
%LPD*%
X21690Y6440D2*
D10*
Y10440D1*
X23690D1*
Y6440D1*
X21690D1*
X14290Y10440D2*
Y11440D1*
X4290Y10440D2*
X14290D1*
X4290D2*
Y11440D1*
X5040D1*
X14290D1*
Y4440D2*
Y5440D1*
X4290Y4440D2*
X14290D1*
X4290D2*
Y5440D1*
X5040D1*
X14290D1*
X3225Y9545D2*
Y6475D1*
X5351Y9545D2*
X6769D1*
X5351Y6475D2*
X6769D1*
X3225Y9545D2*
X3973D1*
X3225Y6475D2*
X3973D1*
X6769Y9545D2*
Y9053D1*
Y6967D2*
Y6475D1*
X8205Y7898D2*
X7575D1*
X8205Y7823D2*
X7575D1*
X8205D2*
Y8059D1*
X7575Y7823D2*
Y8059D1*
X14490Y11440D2*
X18490D1*
Y9440D1*
X14490D1*
Y11440D1*
X18690Y5940D2*
Y4940D1*
X20690Y5940D2*
X18690D1*
X20690D2*
Y4940D1*
X18690D1*
X25296Y4876D2*
X24784D1*
X25291Y9281D2*
X24779D1*
X25291Y7081D2*
X24779D1*
D21*
X8888Y9223D3*
X9781Y9234D2*
D10*
Y6635D1*
X10883Y9234D2*
Y6635D1*
X9781D2*
X10883D1*
X9781Y9234D2*
X10883D1*
X21826Y5734D2*
Y6246D1*
X16204Y8546D2*
Y8034D1*
X14500Y6440D2*
X18500D1*
Y4440D1*
X14500D1*
Y6440D1*
X7790Y5440D2*
Y6440D1*
X5790Y5440D2*
X7790D1*
X5790D2*
Y6440D1*
X7790D1*
X18690Y11440D2*
X20690D1*
X18690Y9440D2*
Y11440D1*
X20690Y9440D2*
Y11440D1*
X18690Y9440D2*
X20690D1*
X18690Y8440D2*
X20690D1*
X18690Y6440D2*
Y8440D1*
X20690Y6440D2*
Y8440D1*
X18690Y6440D2*
X20690D1*
X16204Y7796D2*
Y7284D1*
X12320Y10250D2*
D12*
X12350D1*
X13070D2*
X13130D1*
X12334Y10220D2*
X12361D1*
X13059D2*
X13097D1*
X12343Y10190D2*
X12371D1*
X13049D2*
X13067D1*
X12350Y10160D2*
X12380D1*
X13040D2*
D3*
X11300Y10130D2*
X11510D1*
X13850D2*
X14060D1*
X11300Y10100D2*
X11510D1*
X13850D2*
X14060D1*
X11300Y10070D2*
X11510D1*
X11930D2*
X11960D1*
X13430D2*
D3*
X13850D2*
X14060D1*
X11300Y10040D2*
D3*
X11480D2*
X11510D1*
X11925D2*
X11945D1*
X13440D2*
X13460D1*
X13850D2*
X13880D1*
X14060D2*
D3*
X11300Y10010D2*
D3*
X11480D2*
X11510D1*
X11918D2*
X11933D1*
X13450D2*
X13471D1*
X13850D2*
X13880D1*
X14060D2*
D3*
X11300Y9980D2*
D3*
X11480D2*
X11510D1*
X11909D2*
X11921D1*
X13460D2*
X13484D1*
X13850D2*
X13880D1*
X14060D2*
D3*
X11300Y9950D2*
D3*
X11480D2*
X11510D1*
X11899D2*
X11910D1*
X13471D2*
X13497D1*
X13850D2*
X13880D1*
X14060D2*
D3*
X11300Y9920D2*
D3*
X11480D2*
X11510D1*
X11885D2*
X11900D1*
X13484D2*
X13508D1*
X13850D2*
X13880D1*
X14060D2*
D3*
X11300Y9890D2*
D3*
X11480D2*
X11510D1*
X11869D2*
X11890D1*
X13497D2*
X13515D1*
X13850D2*
X13880D1*
X14060D2*
D3*
X11120Y9860D2*
X11300D1*
X11480D2*
X11660D1*
X11855D2*
X11880D1*
X12350D2*
D3*
X13010D2*
X13040D1*
X13508D2*
X13523D1*
X13700D2*
X13880D1*
X14060D2*
X14240D1*
X11120Y9830D2*
X11300D1*
X11480D2*
X11660D1*
X11847D2*
X11870D1*
X12316D2*
X12410D1*
X12986D2*
X13054D1*
X13514D2*
X13531D1*
X13700D2*
X13880D1*
X14060D2*
X14240D1*
X11120Y9800D2*
X11300D1*
X11480D2*
X11660D1*
X11843D2*
X11860D1*
X12285D2*
X12410D1*
X12968D2*
X13062D1*
X13518D2*
X13540D1*
X13700D2*
X13880D1*
X14060D2*
X14240D1*
X11120Y9770D2*
D3*
X11300D2*
D3*
X11480D2*
X11510D1*
X11660D2*
D3*
X11841D2*
X11851D1*
X12271D2*
X12410D1*
X12959D2*
X13067D1*
X13519D2*
X13545D1*
X13700D2*
D3*
X13850D2*
X13880D1*
X14060D2*
D3*
X14240D2*
D3*
X11120Y9740D2*
D3*
X11660D2*
D3*
X11840D2*
X11845D1*
X12268D2*
X12407D1*
X12953D2*
X13067D1*
X13520D2*
X13548D1*
X13700D2*
D3*
X14240D2*
D3*
X11120Y9710D2*
D3*
X11660D2*
D3*
X11840D2*
X11842D1*
X12281D2*
X12402D1*
X12959D2*
X13064D1*
X13520D2*
X13549D1*
X13700D2*
D3*
X14240D2*
D3*
X11120Y9680D2*
D3*
X11660D2*
D3*
X11840D2*
X11841D1*
X12313D2*
X12379D1*
X12982D2*
X13054D1*
X13520D2*
X13550D1*
X13700D2*
D3*
X14240D2*
D3*
X11120Y9650D2*
D3*
X11660D2*
D3*
X11840D2*
X11842D1*
X12350D2*
D3*
X13010D2*
X13040D1*
X13520D2*
X13550D1*
X13700D2*
D3*
X14240D2*
D3*
X11120Y9620D2*
D3*
X11660D2*
D3*
X11840D2*
X11845D1*
X13520D2*
X13550D1*
X13700D2*
D3*
X14240D2*
D3*
X11120Y9590D2*
D3*
X11660D2*
D3*
X11840D2*
X11852D1*
X13520D2*
X13549D1*
X13700D2*
D3*
X14240D2*
D3*
X11120Y9560D2*
D3*
X11660D2*
D3*
X11840D2*
X11860D1*
X13520D2*
X13545D1*
X13700D2*
D3*
X14240D2*
D3*
X11120Y9530D2*
D3*
X11660D2*
D3*
X11841D2*
X11866D1*
X13519D2*
X13538D1*
X13700D2*
D3*
X14240D2*
D3*
X11120Y9500D2*
D3*
X11660D2*
D3*
X11845D2*
X11873D1*
X13515D2*
X13530D1*
X13700D2*
D3*
X14240D2*
D3*
X11120Y9470D2*
X11150D1*
X11630D2*
X11660D1*
X11853D2*
X11881D1*
X13507D2*
X13524D1*
X13700D2*
X13730D1*
X14210D2*
X14240D1*
X11120Y9440D2*
X11660D1*
X11865D2*
X11890D1*
X13495D2*
X13517D1*
X13700D2*
X14240D1*
X11120Y9410D2*
X11660D1*
X11877D2*
X11896D1*
X13483D2*
X13507D1*
X13700D2*
X14240D1*
X11120Y9380D2*
D3*
X11660D2*
D3*
X11889D2*
X11903D1*
X13471D2*
X13495D1*
X13700D2*
D3*
X14240D2*
D3*
X11899Y9350D2*
X11911D1*
X13461D2*
X13482D1*
X11911Y9320D2*
X11920D1*
X12470D2*
X12860D1*
X13450D2*
X13467D1*
X11925Y9290D2*
X11926D1*
X12470D2*
X12860D1*
X13441D2*
X13453D1*
X11941Y9260D2*
X11930D1*
X12470D2*
X12860D1*
X13435D2*
X13441D1*
X11960Y9230D2*
D3*
X12470D2*
X12860D1*
X13430D2*
D3*
X12320Y10250D2*
X12334Y10220D1*
X12343Y10190D1*
X12350Y10160D1*
Y10250D2*
X12361Y10220D1*
X12371Y10190D1*
X12380Y10160D1*
X13070Y10250D2*
X13059Y10220D1*
X13049Y10190D1*
X13040Y10160D1*
X13130Y10250D2*
X13097Y10220D1*
X13067Y10190D1*
X13040Y10160D1*
X11300Y10130D2*
Y10100D1*
Y10070D1*
Y10040D1*
Y10010D1*
Y9980D1*
Y9950D1*
Y9920D1*
Y9890D1*
Y9860D1*
X11120D1*
Y9830D1*
Y9800D1*
Y9770D1*
Y9740D1*
Y9710D1*
Y9680D1*
Y9650D1*
Y9620D1*
Y9590D1*
Y9560D1*
Y9530D1*
Y9500D1*
Y9470D1*
Y9440D1*
Y9410D1*
Y9380D1*
X11510Y10130D2*
Y10100D1*
Y10070D1*
Y10040D1*
Y10010D1*
Y9980D1*
Y9950D1*
Y9920D1*
Y9890D1*
Y9860D1*
X11660D1*
Y9830D1*
Y9800D1*
Y9770D1*
Y9740D1*
Y9710D1*
Y9680D1*
Y9650D1*
Y9620D1*
Y9590D1*
Y9560D1*
Y9530D1*
Y9500D1*
Y9470D1*
Y9440D1*
Y9410D1*
Y9380D1*
X13850Y10130D2*
Y10100D1*
Y10070D1*
Y10040D1*
Y10010D1*
Y9980D1*
Y9950D1*
Y9920D1*
Y9890D1*
Y9860D1*
X13700D1*
Y9830D1*
Y9800D1*
Y9770D1*
Y9740D1*
Y9710D1*
Y9680D1*
Y9650D1*
Y9620D1*
Y9590D1*
Y9560D1*
Y9530D1*
Y9500D1*
Y9470D1*
Y9440D1*
Y9410D1*
Y9380D1*
X14060Y10130D2*
Y10100D1*
Y10070D1*
Y10040D1*
Y10010D1*
Y9980D1*
Y9950D1*
Y9920D1*
Y9890D1*
Y9860D1*
X14240D1*
Y9830D1*
Y9800D1*
Y9770D1*
Y9740D1*
Y9710D1*
Y9680D1*
Y9650D1*
Y9620D1*
Y9590D1*
Y9560D1*
Y9530D1*
Y9500D1*
Y9470D1*
Y9440D1*
Y9410D1*
Y9380D1*
X11930Y10070D2*
X11925Y10040D1*
X11918Y10010D1*
X11909Y9980D1*
X11899Y9950D1*
X11885Y9920D1*
X11869Y9890D1*
X11855Y9860D1*
X11847Y9830D1*
X11843Y9800D1*
X11841Y9770D1*
X11840Y9740D1*
Y9710D1*
Y9680D1*
Y9650D1*
Y9620D1*
Y9590D1*
Y9560D1*
X11841Y9530D1*
X11845Y9500D1*
X11853Y9470D1*
X11865Y9440D1*
X11877Y9410D1*
X11889Y9380D1*
X11899Y9350D1*
X11911Y9320D1*
X11925Y9290D1*
X11941Y9260D1*
X11960Y9230D1*
Y10070D2*
X11945Y10040D1*
X11933Y10010D1*
X11921Y9980D1*
X11910Y9950D1*
X11900Y9920D1*
X11890Y9890D1*
X11880Y9860D1*
X11870Y9830D1*
X11860Y9800D1*
X11851Y9770D1*
X11845Y9740D1*
X11842Y9710D1*
X11841Y9680D1*
X11842Y9650D1*
X11845Y9620D1*
X11852Y9590D1*
X11860Y9560D1*
X11866Y9530D1*
X11873Y9500D1*
X11881Y9470D1*
X11890Y9440D1*
X11896Y9410D1*
X11903Y9380D1*
X11911Y9350D1*
X11920Y9320D1*
X11926Y9290D1*
X11930Y9260D1*
X13430Y10070D2*
X13440Y10040D1*
X13450Y10010D1*
X13460Y9980D1*
X13471Y9950D1*
X13484Y9920D1*
X13497Y9890D1*
X13508Y9860D1*
X13514Y9830D1*
X13518Y9800D1*
X13519Y9770D1*
X13520Y9740D1*
Y9710D1*
Y9680D1*
Y9650D1*
Y9620D1*
Y9590D1*
Y9560D1*
X13519Y9530D1*
X13515Y9500D1*
X13507Y9470D1*
X13495Y9440D1*
X13483Y9410D1*
X13471Y9380D1*
X13461Y9350D1*
X13450Y9320D1*
X13441Y9290D1*
X13435Y9260D1*
X13430Y9230D1*
X11480Y10070D2*
Y10040D1*
Y10010D1*
Y9980D1*
Y9950D1*
Y9920D1*
Y9890D1*
Y9860D1*
Y9830D1*
Y9800D1*
Y9770D1*
X13460Y10040D2*
X13471Y10010D1*
X13484Y9980D1*
X13497Y9950D1*
X13508Y9920D1*
X13515Y9890D1*
X13523Y9860D1*
X13531Y9830D1*
X13540Y9800D1*
X13545Y9770D1*
X13548Y9740D1*
X13549Y9710D1*
X13550Y9680D1*
Y9650D1*
Y9620D1*
X13549Y9590D1*
X13545Y9560D1*
X13538Y9530D1*
X13530Y9500D1*
X13524Y9470D1*
X13517Y9440D1*
X13507Y9410D1*
X13495Y9380D1*
X13482Y9350D1*
X13467Y9320D1*
X13453Y9290D1*
X13441Y9260D1*
X13430Y9230D1*
X13880Y10070D2*
Y10040D1*
Y10010D1*
Y9980D1*
Y9950D1*
Y9920D1*
Y9890D1*
Y9860D1*
Y9830D1*
Y9800D1*
Y9770D1*
X11300Y9860D2*
Y9830D1*
Y9800D1*
Y9770D1*
X12350Y9860D2*
X12316Y9830D1*
X12285Y9800D1*
X12271Y9770D1*
X12268Y9740D1*
X12281Y9710D1*
X12313Y9680D1*
X12350Y9650D1*
X13010Y9860D2*
X12986Y9830D1*
X12968Y9800D1*
X12959Y9770D1*
X12953Y9740D1*
X12959Y9710D1*
X12982Y9680D1*
X13010Y9650D1*
X13040Y9860D2*
X13054Y9830D1*
X13062Y9800D1*
X13067Y9770D1*
Y9740D1*
X13064Y9710D1*
X13054Y9680D1*
X13040Y9650D1*
X14060Y9860D2*
Y9830D1*
Y9800D1*
Y9770D1*
X12410Y9830D2*
Y9800D1*
Y9770D1*
X12407Y9740D1*
X12402Y9710D1*
X12379Y9680D1*
X12350Y9650D1*
X11540Y9800D2*
X11510Y9770D1*
X13820Y9800D2*
X13850Y9770D1*
X11150Y9470D2*
Y9440D1*
X11630Y9470D2*
Y9440D1*
X13730Y9470D2*
Y9440D1*
X14210Y9470D2*
Y9440D1*
X12470Y9320D2*
Y9290D1*
Y9260D1*
Y9230D1*
X12860Y9320D2*
Y9290D1*
Y9260D1*
Y9230D1*
X24252Y5418D2*
D41*
Y5633D1*
X24227Y5705D1*
X24204Y5729D1*
X24156Y5753D1*
X24108D1*
X24061Y5729D1*
X24036Y5705D1*
X24012Y5633D1*
Y5418D1*
X24515D1*
X24252Y5585D2*
X24515Y5753D1*
X24127Y10169D2*
X24080Y10146D1*
X24031Y10098D1*
X24008Y10050D1*
Y9954D1*
X24031Y9906D1*
X24080Y9859D1*
X24127Y9834D1*
X24199Y9811D1*
X24319D1*
X24390Y9834D1*
X24438Y9859D1*
X24486Y9906D1*
X24510Y9954D1*
Y10050D1*
X24486Y10097D1*
X24438Y10146D1*
X24390Y10169D1*
X24319D1*
Y10050D1*
X24008Y7599D2*
X24247Y7790D1*
X24510D1*
X24008Y7981D2*
X24247Y7790D1*
X18932Y4595D2*
D42*
X19061D1*
X19104Y4609D1*
X19119Y4624D1*
X19133Y4652D1*
Y4681D1*
X19119Y4709D1*
X19104Y4724D1*
X19061Y4738D1*
X18932D1*
Y4437D1*
X19033Y4595D2*
X19133Y4437D1*
X19226Y4552D2*
X19398D1*
Y4580D1*
X19384Y4609D1*
X19369Y4624D1*
X19341Y4638D1*
X19298D1*
X19269Y4624D1*
X19240Y4595D1*
X19226Y4552D1*
Y4523D1*
X19240Y4480D1*
X19269Y4451D1*
X19298Y4437D1*
X19341D1*
X19369Y4451D1*
X19398Y4480D1*
X19648Y4595D2*
X19634Y4624D1*
X19591Y4638D1*
X19548D1*
X19505Y4624D1*
X19491Y4595D1*
X19505Y4566D1*
X19534Y4552D1*
X19605Y4537D1*
X19634Y4523D1*
X19648Y4494D1*
Y4480D1*
X19634Y4451D1*
X19591Y4437D1*
X19548D1*
X19505Y4451D1*
X19491Y4480D1*
X19741Y4552D2*
X19913D1*
Y4580D1*
X19899Y4609D1*
X19885Y4624D1*
X19856Y4638D1*
X19813D1*
X19784Y4624D1*
X19755Y4595D1*
X19741Y4552D1*
Y4523D1*
X19755Y4480D1*
X19784Y4451D1*
X19813Y4437D1*
X19856D1*
X19885Y4451D1*
X19913Y4480D1*
X20049Y4738D2*
Y4494D1*
X20063Y4451D1*
X20092Y4437D1*
X20121D1*
X20006Y4638D2*
X20106D1*
X20232Y4687D2*
X20347Y4788D1*
X20462Y4687D1*
X20232Y4537D2*
X20347Y4638D1*
X20462Y4537D1*
X21129Y8055D2*
X21029Y8169D1*
X21129Y8284D1*
X20979Y8055D2*
X20879Y8169D1*
X20979Y8284D1*
X16139Y9203D2*
D43*
X16082Y9184D1*
X16063Y9146D1*
Y9107D1*
X16082Y9069D1*
X16120Y9050D1*
X16197Y9031D1*
X16254Y9012D1*
X16292Y8973D1*
X16311Y8935D1*
Y8878D1*
X16292Y8840D1*
X16273Y8820D1*
X16216Y8801D1*
X16139D1*
X16082Y8820D1*
X16063Y8840D1*
X16044Y8878D1*
Y8935D1*
X16063Y8973D1*
X16101Y9012D1*
X16158Y9031D1*
X16235Y9050D1*
X16273Y9069D1*
X16292Y9107D1*
Y9146D1*
X16273Y9184D1*
X16216Y9203D1*
X16139D1*
X16435Y9069D2*
X16645Y8801D1*
Y9069D2*
X16435Y8801D1*
X17075D2*
X16922Y9203D1*
X16769Y8801D1*
X16826Y8935D2*
X17017D1*
X17198Y9203D2*
Y8916D1*
X17217Y8859D1*
X17256Y8821D1*
X17313Y8801D1*
X17351D1*
X17409Y8821D1*
X17447Y8859D1*
X17466Y8916D1*
Y9203D1*
X17590D2*
X17858Y8801D1*
Y9203D2*
X17590Y8801D1*
X21229Y4803D2*
D41*
X21372Y4468D1*
X21515Y4803D1*
X21670Y4659D2*
X21957D1*
Y4707D1*
X21933Y4755D1*
X21909Y4779D1*
X21861Y4803D1*
X21789D1*
X21742Y4779D1*
X21694Y4731D1*
X21670Y4659D1*
Y4612D1*
X21694Y4540D1*
X21742Y4492D1*
X21789Y4468D1*
X21861D1*
X21909Y4492D1*
X21957Y4540D1*
X22111Y4803D2*
Y4468D1*
Y4659D2*
X22135Y4731D1*
X22183Y4779D1*
X22231Y4803D1*
X22303D1*
X22772Y4970D2*
X22700Y4946D1*
X22652Y4874D1*
X22629Y4755D1*
Y4683D1*
X22652Y4564D1*
X22700Y4492D1*
X22772Y4468D1*
X22820D1*
X22892Y4492D1*
X22939Y4564D1*
X22964Y4683D1*
Y4755D1*
X22939Y4874D1*
X22892Y4946D1*
X22820Y4970D1*
X22772D1*
X22939Y4874D2*
X22652Y4564D1*
X23142Y4516D2*
X23118Y4492D1*
X23142Y4468D1*
X23166Y4492D1*
X23142Y4516D1*
X23320Y4874D2*
X23368Y4899D1*
X23440Y4970D1*
Y4468D1*
X23595Y4970D2*
Y4468D1*
Y4731D2*
X23643Y4779D1*
X23690Y4803D1*
X23762D1*
X23810Y4779D1*
X23858Y4731D1*
X23882Y4659D1*
Y4612D1*
X23858Y4540D1*
X23810Y4492D1*
X23762Y4468D1*
X23690D1*
X23643Y4492D1*
X23595Y4540D1*
X18075Y9073D2*
X18267Y9241D1*
X18458Y9073D1*
X18075Y8773D2*
X18267Y8941D1*
X18458Y8773D1*
X21036Y9733D2*
D42*
X21008Y9719D1*
X20979Y9690D1*
X20965Y9662D1*
Y9604D1*
X20979Y9576D1*
X21008Y9547D1*
X21036Y9533D1*
X21079Y9518D1*
X21151D1*
X21194Y9533D1*
X21223Y9547D1*
X21252Y9576D1*
X21266Y9604D1*
Y9662D1*
X21252Y9690D1*
X21223Y9719D1*
X21194Y9733D1*
X21151D1*
Y9662D1*
X20965Y10027D2*
X21266D1*
X20965Y9826D1*
X21266D1*
X20965Y10120D2*
X21266D1*
Y10220D1*
X21252Y10263D1*
X21223Y10292D1*
X21194Y10306D1*
X21151Y10321D1*
X21079D1*
X21036Y10306D1*
X21008Y10292D1*
X20979Y10263D1*
X20965Y10220D1*
Y10120D1*
X20886Y10514D2*
X20915Y10485D1*
X20958Y10456D1*
X21015Y10428D1*
X21087Y10413D1*
X21144D1*
X21216Y10428D1*
X21273Y10456D1*
X21317Y10485D1*
X21345Y10514D1*
X21116Y10606D2*
Y10772D1*
X20886Y10865D2*
X20915Y10894D1*
X20958Y10922D1*
X21015Y10951D1*
X21087Y10965D1*
X21144D1*
X21216Y10951D1*
X21273Y10922D1*
X21317Y10894D1*
X21345Y10865D1*
X20951Y6805D2*
Y6661D1*
X21080Y6647D1*
X21066Y6661D1*
X21051Y6704D1*
Y6747D1*
X21066Y6790D1*
X21094Y6819D1*
X21137Y6833D1*
X21166D1*
X21209Y6819D1*
X21238Y6790D1*
X21252Y6747D1*
Y6704D1*
X21238Y6661D1*
X21223Y6647D1*
X21195Y6632D1*
X20951Y6926D2*
X21252Y7041D1*
X20951Y7156D1*
X20872Y7349D2*
X20900Y7320D1*
X20944Y7291D1*
X21001Y7262D1*
X21073Y7248D1*
X21130D1*
X21202Y7262D1*
X21259Y7291D1*
X21302Y7320D1*
X21331Y7349D1*
X20972Y7570D2*
X21231D1*
X21102Y7441D2*
Y7700D1*
X20872Y7792D2*
X20900Y7821D1*
X20944Y7850D1*
X21001Y7878D1*
X21073Y7893D1*
X21130D1*
X21202Y7878D1*
X21259Y7850D1*
X21302Y7821D1*
X21331Y7792D1*
X20028Y9093D2*
X20100Y8792D1*
X20171Y9093D1*
X20243Y8792D1*
X20315Y9093D1*
X20408D2*
X20422Y9079D1*
X20436Y9093D1*
X20422Y9108D1*
X20408Y9093D1*
X20422Y8993D2*
Y8792D1*
X20529Y8942D2*
X20695D1*
X20974Y9093D2*
X20788D1*
Y8792D1*
Y8950D2*
X20902D1*
X21067Y9093D2*
X21081Y9079D1*
X21096Y9093D1*
X21081Y9108D1*
X21067Y9093D1*
X21081Y8993D2*
Y8792D1*
X21143Y11105D2*
X21042Y11219D1*
X21143Y11334D1*
X20979Y11105D2*
X20879Y11219D1*
X20979Y11334D1*
X21415Y9034D2*
X21515Y8919D1*
X21415Y8805D1*
X21265Y9034D2*
X21365Y8919D1*
X21265Y8805D1*
X15462Y6946D2*
D43*
X15423Y6984D1*
X15366Y7003D1*
X15290D1*
X15232Y6984D1*
X15194Y6946D1*
Y6908D1*
X15213Y6869D1*
X15232Y6850D1*
X15270Y6831D1*
X15385Y6793D1*
X15423Y6774D1*
X15442Y6754D1*
X15462Y6716D1*
Y6659D1*
X15423Y6621D1*
X15366Y6601D1*
X15290D1*
X15232Y6621D1*
X15194Y6659D1*
X15872Y6908D2*
X15853Y6946D1*
X15814Y6984D1*
X15776Y7003D1*
X15700D1*
X15662Y6984D1*
X15623Y6946D1*
X15604Y6908D1*
X15585Y6850D1*
Y6754D1*
X15604Y6697D1*
X15623Y6659D1*
X15662Y6621D1*
X15700Y6601D1*
X15776D1*
X15814Y6621D1*
X15853Y6659D1*
X15872Y6697D1*
X15995Y7003D2*
Y6601D1*
X16225D1*
X16348D2*
X16616Y7003D1*
X17008Y6946D2*
X16970Y6984D1*
X16912Y7003D1*
X16836D1*
X16778Y6984D1*
X16740Y6946D1*
Y6908D1*
X16759Y6869D1*
X16778Y6850D1*
X16816Y6831D1*
X16931Y6793D1*
X16970Y6774D1*
X16989Y6754D1*
X17008Y6716D1*
Y6659D1*
X16970Y6621D1*
X16912Y6601D1*
X16836D1*
X16778Y6621D1*
X16740Y6659D1*
X17131Y7003D2*
Y6601D1*
X17265D1*
X17323Y6621D1*
X17361Y6659D1*
X17380Y6697D1*
X17399Y6754D1*
Y6850D1*
X17380Y6908D1*
X17361Y6946D1*
X17323Y6984D1*
X17265Y7003D1*
X17131D1*
X17829Y6601D2*
X17676Y7003D1*
X17523Y6601D1*
X17580Y6735D2*
X17772D1*
X18408Y7047D2*
D41*
X18217Y6879D1*
X18025Y7047D1*
X18408Y6747D2*
X18217Y6579D1*
X18025Y6747D1*
X14575Y6873D2*
X14767Y7041D1*
X14958Y6873D1*
X14575Y6573D2*
X14767Y6741D1*
X14958Y6573D1*
X5990Y10025D2*
D43*
X6162D1*
X6219Y10044D1*
X6239Y10063D1*
X6258Y10101D1*
Y10159D1*
X6239Y10197D1*
X6219Y10216D1*
X6162Y10235D1*
X5990D1*
Y9833D1*
X6477Y10101D2*
X6439Y10082D1*
X6400Y10044D1*
X6381Y9986D1*
Y9948D1*
X6400Y9891D1*
X6439Y9853D1*
X6477Y9833D1*
X6534D1*
X6573Y9853D1*
X6611Y9891D1*
X6630Y9948D1*
Y9986D1*
X6611Y10044D1*
X6573Y10082D1*
X6534Y10101D1*
X6477D1*
X6754D2*
Y9833D1*
Y9986D2*
X6773Y10044D1*
X6811Y10082D1*
X6850Y10101D1*
X6907D1*
X7088Y10235D2*
Y9910D1*
X7107Y9853D1*
X7146Y9833D1*
X7184D1*
X7031Y10101D2*
X7165D1*
X7307Y9986D2*
X7537D1*
Y10025D1*
X7518Y10063D1*
X7499Y10082D1*
X7460Y10101D1*
X7403D1*
X7365Y10082D1*
X7326Y10044D1*
X7307Y9986D1*
Y9948D1*
X7326Y9891D1*
X7365Y9853D1*
X7403Y9833D1*
X7460D1*
X7499Y9853D1*
X7537Y9891D1*
X7660Y10101D2*
Y9833D1*
Y9986D2*
X7680Y10044D1*
X7718Y10082D1*
X7756Y10101D1*
X7814D1*
X8613Y10140D2*
X8594Y10178D1*
X8556Y10216D1*
X8518Y10235D1*
X8441D1*
X8403Y10216D1*
X8365Y10178D1*
X8345Y10140D1*
X8326Y10082D1*
Y9986D1*
X8345Y9929D1*
X8365Y9891D1*
X8403Y9853D1*
X8441Y9833D1*
X8518D1*
X8556Y9853D1*
X8594Y9891D1*
X8613Y9929D1*
X8737Y10101D2*
Y9910D1*
X8756Y9853D1*
X8794Y9833D1*
X8852D1*
X8890Y9853D1*
X8947Y9910D1*
Y10101D2*
Y9833D1*
X9281Y10044D2*
X9262Y10082D1*
X9205Y10101D1*
X9147D1*
X9090Y10082D1*
X9071Y10044D1*
X9090Y10006D1*
X9128Y9986D1*
X9224Y9967D1*
X9262Y9948D1*
X9281Y9910D1*
Y9891D1*
X9262Y9853D1*
X9205Y9833D1*
X9147D1*
X9090Y9853D1*
X9071Y9891D1*
X9462Y10235D2*
Y9910D1*
X9481Y9853D1*
X9519Y9833D1*
X9558D1*
X9405Y10101D2*
X9539D1*
X9777D2*
X9739Y10082D1*
X9700Y10044D1*
X9681Y9986D1*
Y9948D1*
X9700Y9891D1*
X9739Y9853D1*
X9777Y9833D1*
X9834D1*
X9872Y9853D1*
X9911Y9891D1*
X9930Y9948D1*
Y9986D1*
X9911Y10044D1*
X9872Y10082D1*
X9834Y10101D1*
X9777D1*
X10053D2*
Y9833D1*
Y10025D2*
X10111Y10082D1*
X10149Y10101D1*
X10206D1*
X10245Y10082D1*
X10264Y10025D1*
Y9833D1*
Y10025D2*
X10321Y10082D1*
X10360Y10101D1*
X10417D1*
X10455Y10082D1*
X10475Y10025D1*
Y9833D1*
X10809Y10044D2*
X10790Y10082D1*
X10732Y10101D1*
X10675D1*
X10617Y10082D1*
X10598Y10044D1*
X10617Y10006D1*
X10656Y9986D1*
X10751Y9967D1*
X10790Y9948D1*
X10809Y9910D1*
Y9891D1*
X10790Y9853D1*
X10732Y9833D1*
X10675D1*
X10617Y9853D1*
X10598Y9891D1*
X12950Y5738D2*
D42*
X12935Y5695D1*
X12907Y5666D1*
X12864Y5652D1*
X12849D1*
X12806Y5666D1*
X12778Y5695D1*
X12763Y5738D1*
Y5752D1*
X12778Y5795D1*
X12806Y5824D1*
X12849Y5838D1*
X12864D1*
X12907Y5824D1*
X12935Y5795D1*
X12950Y5738D1*
Y5666D1*
X12935Y5594D1*
X12907Y5551D1*
X12864Y5537D1*
X12835D1*
X12792Y5551D1*
X12778Y5580D1*
X13042Y5537D2*
X13243Y5838D1*
X13508Y5795D2*
X13494Y5824D1*
X13451Y5838D1*
X13422D1*
X13379Y5824D1*
X13350Y5781D1*
X13336Y5709D1*
Y5637D1*
X13350Y5580D1*
X13379Y5551D1*
X13422Y5537D1*
X13437D1*
X13479Y5551D1*
X13508Y5580D1*
X13522Y5623D1*
Y5637D1*
X13508Y5680D1*
X13479Y5709D1*
X13437Y5723D1*
X13422D1*
X13379Y5709D1*
X13350Y5680D1*
X13336Y5637D1*
X13615Y5537D2*
X13816Y5838D1*
X13909Y5781D2*
X13938Y5795D1*
X13981Y5838D1*
Y5537D1*
X14245Y5838D2*
X14102D1*
X14088Y5709D1*
X14102Y5723D1*
X14145Y5738D1*
X14188D1*
X14231Y5723D1*
X14260Y5695D1*
X14274Y5652D1*
Y5623D1*
X14260Y5580D1*
X14231Y5551D1*
X14188Y5537D1*
X14145D1*
X14102Y5551D1*
X14088Y5566D1*
X14073Y5594D1*
M02*
