G04 DipTrace 2.4.0.2*
%INBottomMask.gbr*%
%MOIN*%
%ADD39O,0.088X0.083*%
%ADD43R,0.078X0.078*%
%ADD45C,0.088*%
%ADD47C,0.088*%
%FSLAX44Y44*%
G04*
G70*
G90*
G75*
G01*
%LNBotMask*%
%LPD*%
D47*
X14940Y9390D3*
X16640D3*
X18340D3*
X20040D3*
D45*
X22040Y5640D3*
X21040D3*
X22040Y6640D3*
X21040D3*
X22040Y7640D3*
X21040D3*
X22040Y8640D3*
X21040D3*
D43*
X4740Y10990D3*
D45*
X5740D3*
X6740D3*
X7740D3*
X8740D3*
X9740D3*
X10740D3*
X11740D3*
X12740D3*
X13740D3*
D43*
X4740Y4990D3*
D45*
X5740D3*
X6740D3*
X7740D3*
X8740D3*
X9740D3*
X10740D3*
X11740D3*
X12740D3*
X13740D3*
X6642Y8290D3*
Y7030D3*
G36*
X4452Y9472D2*
X4294Y9435D1*
X4163Y9331D1*
X4090Y9181D1*
Y9013D1*
X4163Y8863D1*
X4294Y8759D1*
X4452Y8722D1*
X4855D1*
X5013Y8759D1*
X5144Y8863D1*
X5217Y9013D1*
Y9181D1*
X5144Y9331D1*
X5013Y9435D1*
X4855Y9472D1*
X4452D1*
G37*
G36*
Y6598D2*
X4294Y6561D1*
X4163Y6457D1*
X4090Y6307D1*
Y6139D1*
X4163Y5989D1*
X4294Y5885D1*
X4452Y5848D1*
X4855D1*
X5013Y5885D1*
X5144Y5989D1*
X5217Y6139D1*
Y6307D1*
X5144Y6457D1*
X5013Y6561D1*
X4855Y6598D1*
X4452D1*
G37*
D39*
X20040Y10390D3*
Y11390D3*
X21040Y10390D3*
Y11390D3*
D47*
X22040D3*
D45*
Y10390D3*
D47*
X16840Y5890D3*
M02*
