M48
INCH
T01C0.013
T02C0.0191
T03C0.025
T04C0.0276
T05C0.042
%
T01
X+019240Y+008190
X+017540Y+008190
X+015840Y+008190
X+014140Y+008190
X+011790Y+005990
X+010390Y+005690
X+008740Y+006640
X+005490Y+006790
X+023440Y+008140
X+023940Y+008990
X+023440Y+010340
X+023190Y+011790
X+023940Y+011790
X+023940Y+006790
X+023940Y+004590
T02
X+018490Y+007190
X+014590Y+007190
T03
X+006642Y+008290
X+006642Y+007030
T04
X+004417Y+009097G85X+004890Y+009097
X+004417Y+006223G85X+004890Y+006223
T05
X+014940Y+009390
X+016640Y+009390
X+018340Y+009390
X+020040Y+009390
X+020040Y+010390
X+020040Y+011390
X+021040Y+011390
X+022040Y+011390
X+022040Y+010390
X+021040Y+010390
X+021040Y+008640
X+021040Y+007640
X+021040Y+006640
X+021040Y+005640
X+022040Y+005640
X+022040Y+006640
X+022040Y+007640
X+022040Y+008640
X+016840Y+005890
X+013740Y+004990
X+012740Y+004990
X+011740Y+004990
X+010740Y+004990
X+009740Y+004990
X+008740Y+004990
X+007740Y+004990
X+006740Y+004990
X+005740Y+004990
X+004740Y+004990
X+004740Y+010990
X+005740Y+010990
X+006740Y+010990
X+007740Y+010990
X+008740Y+010990
X+009740Y+010990
X+010740Y+010990
X+011740Y+010990
X+012740Y+010990
X+013740Y+010990
T00
M30
