G04 DipTrace 2.4.0.2*
%INTopSilk.gbr*%
%MOIN*%
%ADD10C,0.0098*%
%ADD12C,0.003*%
%ADD21C,0.0154*%
%ADD50C,0.0077*%
%ADD51C,0.0046*%
%ADD52C,0.0062*%
%FSLAX44Y44*%
G04*
G70*
G90*
G75*
G01*
%LNTopSilk*%
%LPD*%
D21*
X13893Y8898D3*
X14394Y8806D2*
D10*
Y7625D1*
X14591D1*
Y8806D1*
X14394D1*
D21*
X15593Y8898D3*
X16094Y8806D2*
D10*
Y7625D1*
X16291D1*
Y8806D1*
X16094D1*
D21*
X17293Y8898D3*
X17794Y8806D2*
D10*
Y7625D1*
X17991D1*
Y8806D1*
X17794D1*
D21*
X18993Y8898D3*
X19494Y8806D2*
D10*
Y7625D1*
X19691D1*
Y8806D1*
X19494D1*
X20540Y5140D2*
Y9140D1*
X22540D1*
Y5140D1*
X20540D1*
X14240Y10490D2*
Y11490D1*
X4240Y10490D2*
X14240D1*
X4240D2*
Y11490D1*
X4990D1*
X14240D1*
Y4490D2*
Y5490D1*
X4240Y4490D2*
X14240D1*
X4240D2*
Y5490D1*
X4990D1*
X14240D1*
X3177Y9195D2*
Y6125D1*
X5303Y9195D2*
X6721D1*
X5303Y6125D2*
X6721D1*
X3177Y9195D2*
X3925D1*
X3177Y6125D2*
X3925D1*
X6721Y9195D2*
Y8703D1*
Y6617D2*
Y6125D1*
X8645Y7937D2*
X8016D1*
X8645Y7863D2*
X8016D1*
X8645D2*
Y8098D1*
X8016Y7863D2*
Y8098D1*
X19540Y11890D2*
X21540D1*
X19540Y9890D2*
Y11890D1*
X21540Y9890D2*
Y11890D1*
X19540Y9890D2*
X21540D1*
X22540D1*
X21540Y11890D2*
Y9890D1*
Y11890D2*
X22540D1*
Y9890D1*
X24196Y4776D2*
X23684D1*
D21*
X9236Y9269D3*
X10129Y9279D2*
D10*
Y6681D1*
X11231Y9279D2*
Y6681D1*
X10129D2*
X11231D1*
X10129Y9279D2*
X11231D1*
X8726Y5884D2*
Y6396D1*
X19296Y6076D2*
X18784D1*
X14296D2*
X13784D1*
X8754Y6396D2*
Y5884D1*
X24191Y9181D2*
X23679D1*
X24191Y6981D2*
X23679D1*
X11430Y10360D2*
D12*
X11850D1*
X13140D2*
X13560D1*
X10830Y10330D2*
X10890D1*
X11362D2*
X11912D1*
X13072D2*
X13628D1*
X10805Y10300D2*
X10884D1*
X11306D2*
X11967D1*
X12300D2*
X12390D1*
X13016D2*
X13334D1*
X13366D2*
X13684D1*
X10782Y10270D2*
X10873D1*
X11263D2*
X11634D1*
X11879D2*
X12012D1*
X12300D2*
X12390D1*
X12973D2*
X13380D1*
X13559D2*
X13727D1*
X10761Y10240D2*
X10857D1*
X11231D2*
X11460D1*
X11573D2*
X11652D1*
X11934D2*
X12047D1*
X12300D2*
X12390D1*
X12941D2*
X13140D1*
X13283D2*
X13380D1*
X13585D2*
X13759D1*
X10740Y10210D2*
X10840D1*
X11208D2*
X11280D1*
X11370D2*
X11430D1*
X11589D2*
X11663D1*
X11984D2*
X12071D1*
X12300D2*
X12394D1*
X12918D2*
X12990D1*
X13080D2*
X13142D1*
X13299D2*
X13380D1*
X13607D2*
X13784D1*
X10721Y10180D2*
X10824D1*
X11190D2*
X11250D1*
X11371D2*
X11400D1*
X11601D2*
X11662D1*
X12030D2*
X12090D1*
X12300D2*
X12401D1*
X12900D2*
X12960D1*
X13081D2*
X13156D1*
X13311D2*
X13379D1*
X13625D2*
X13772D1*
X10705Y10150D2*
X10808D1*
X11376D2*
X11486D1*
X11519D2*
X11654D1*
X12300D2*
X12433D1*
X13086D2*
X13203D1*
X13229D2*
X13375D1*
X13641D2*
X13760D1*
X10692Y10120D2*
X10794D1*
X11388D2*
X11638D1*
X12302D2*
X12472D1*
X13098D2*
X13360D1*
X13656D2*
X13761D1*
X10681Y10090D2*
X10781D1*
X11408D2*
X11612D1*
X12315D2*
X12511D1*
X13118D2*
X13327D1*
X13667D2*
X13769D1*
X10670Y10060D2*
X10771D1*
X11430D2*
X11580D1*
X12357D2*
X12543D1*
X13140D2*
X13290D1*
X13675D2*
X13779D1*
X10661Y10030D2*
X10760D1*
X12405D2*
X12568D1*
X13683D2*
X13788D1*
X10655Y10000D2*
X10751D1*
X12445D2*
X12585D1*
X13691D2*
X13794D1*
X10652Y9970D2*
X10745D1*
X12474D2*
X12598D1*
X13700D2*
X13798D1*
X10651Y9940D2*
X10742D1*
X12495D2*
X12609D1*
X13705D2*
X13799D1*
X10650Y9910D2*
X10741D1*
X12503D2*
X12619D1*
X13708D2*
X13800D1*
X10650Y9880D2*
X10740D1*
X12507D2*
X12624D1*
X13709D2*
X13800D1*
X10650Y9850D2*
X10740D1*
X12508D2*
X12623D1*
X13710D2*
X13800D1*
X10650Y9820D2*
X10740D1*
X12504D2*
X12617D1*
X13710D2*
X13800D1*
X10650Y9790D2*
X10741D1*
X12496D2*
X12610D1*
X13709D2*
X13800D1*
X10650Y9760D2*
X10745D1*
X12090D2*
X12210D1*
X12482D2*
X12603D1*
X13705D2*
X13799D1*
X10651Y9730D2*
X10752D1*
X12102D2*
X12248D1*
X12444D2*
X12596D1*
X13698D2*
X13795D1*
X10655Y9700D2*
X10761D1*
X12117D2*
X12340D1*
X12351D2*
X12584D1*
X13689D2*
X13788D1*
X10663Y9670D2*
X10770D1*
X12136D2*
X12555D1*
X13680D2*
X13779D1*
X10675Y9640D2*
X10781D1*
X12179D2*
X12513D1*
X13669D2*
X13770D1*
X10688Y9610D2*
X10794D1*
X12236D2*
X12455D1*
X13656D2*
X13759D1*
X10703Y9580D2*
X10808D1*
X11970D2*
X12060D1*
X12300D2*
X12390D1*
X12810D2*
X12900D1*
X13642D2*
X13746D1*
X10718Y9550D2*
X10823D1*
X12000D2*
X12102D1*
X12768D2*
X12870D1*
X13627D2*
X13732D1*
X10734Y9520D2*
X10838D1*
X12031D2*
X12156D1*
X12714D2*
X12839D1*
X13612D2*
X13716D1*
X10753Y9490D2*
X10852D1*
X12068D2*
X12225D1*
X12645D2*
X12802D1*
X13596D2*
X13697D1*
X10776Y9460D2*
X10867D1*
X12114D2*
X12756D1*
X13577D2*
X13674D1*
X10802Y9430D2*
X10879D1*
X12174D2*
X12696D1*
X13555D2*
X13648D1*
X10830Y9400D2*
X10890D1*
X12240D2*
X12630D1*
X13530D2*
X13620D1*
X11430Y10360D2*
X11362Y10330D1*
X11306Y10300D1*
X11263Y10270D1*
X11231Y10240D1*
X11208Y10210D1*
X11190Y10180D1*
X11850Y10360D2*
X11912Y10330D1*
X11967Y10300D1*
X12012Y10270D1*
X12047Y10240D1*
X12071Y10210D1*
X12090Y10180D1*
X13140Y10360D2*
X13072Y10330D1*
X13016Y10300D1*
X12973Y10270D1*
X12941Y10240D1*
X12918Y10210D1*
X12900Y10180D1*
X13560Y10360D2*
X13628Y10330D1*
X13684Y10300D1*
X13727Y10270D1*
X13759Y10240D1*
X13784Y10210D1*
X13772Y10180D1*
X13760Y10150D1*
X13761Y10120D1*
X13769Y10090D1*
X13779Y10060D1*
X13788Y10030D1*
X13794Y10000D1*
X13798Y9970D1*
X13799Y9940D1*
X13800Y9910D1*
Y9880D1*
Y9850D1*
Y9820D1*
Y9790D1*
X13799Y9760D1*
X13795Y9730D1*
X13788Y9700D1*
X13779Y9670D1*
X13770Y9640D1*
X13759Y9610D1*
X13746Y9580D1*
X13732Y9550D1*
X13716Y9520D1*
X13697Y9490D1*
X13674Y9460D1*
X13648Y9430D1*
X13620Y9400D1*
X10830Y10330D2*
X10805Y10300D1*
X10782Y10270D1*
X10761Y10240D1*
X10740Y10210D1*
X10721Y10180D1*
X10705Y10150D1*
X10692Y10120D1*
X10681Y10090D1*
X10670Y10060D1*
X10661Y10030D1*
X10655Y10000D1*
X10652Y9970D1*
X10651Y9940D1*
X10650Y9910D1*
Y9880D1*
Y9850D1*
Y9820D1*
Y9790D1*
Y9760D1*
X10651Y9730D1*
X10655Y9700D1*
X10663Y9670D1*
X10675Y9640D1*
X10688Y9610D1*
X10703Y9580D1*
X10718Y9550D1*
X10734Y9520D1*
X10753Y9490D1*
X10776Y9460D1*
X10802Y9430D1*
X10830Y9400D1*
X10890Y10330D2*
X10884Y10300D1*
X10873Y10270D1*
X10857Y10240D1*
X10840Y10210D1*
X10824Y10180D1*
X10808Y10150D1*
X10794Y10120D1*
X10781Y10090D1*
X10771Y10060D1*
X10760Y10030D1*
X10751Y10000D1*
X10745Y9970D1*
X10742Y9940D1*
X10741Y9910D1*
X10740Y9880D1*
Y9850D1*
Y9820D1*
X10741Y9790D1*
X10745Y9760D1*
X10752Y9730D1*
X10761Y9700D1*
X10770Y9670D1*
X10781Y9640D1*
X10794Y9610D1*
X10808Y9580D1*
X10823Y9550D1*
X10838Y9520D1*
X10852Y9490D1*
X10867Y9460D1*
X10879Y9430D1*
X10890Y9400D1*
X12300Y10300D2*
Y10270D1*
Y10240D1*
Y10210D1*
Y10180D1*
Y10150D1*
X12302Y10120D1*
X12315Y10090D1*
X12357Y10060D1*
X12405Y10030D1*
X12445Y10000D1*
X12474Y9970D1*
X12495Y9940D1*
X12503Y9910D1*
X12507Y9880D1*
X12508Y9850D1*
X12504Y9820D1*
X12496Y9790D1*
X12482Y9760D1*
X12444Y9730D1*
X12351Y9700D1*
X12240Y9670D1*
X12390Y10300D2*
Y10270D1*
Y10240D1*
X12394Y10210D1*
X12401Y10180D1*
X12433Y10150D1*
X12472Y10120D1*
X12511Y10090D1*
X12543Y10060D1*
X12568Y10030D1*
X12585Y10000D1*
X12598Y9970D1*
X12609Y9940D1*
X12619Y9910D1*
X12624Y9880D1*
X12623Y9850D1*
X12617Y9820D1*
X12610Y9790D1*
X12603Y9760D1*
X12596Y9730D1*
X12584Y9700D1*
X12555Y9670D1*
X12513Y9640D1*
X12455Y9610D1*
X12390Y9580D1*
X13350Y10330D2*
X13334Y10300D1*
X13320Y10270D1*
X13350Y10330D2*
X13366Y10300D1*
X13380Y10270D1*
X11610Y10300D2*
X11634Y10270D1*
X11652Y10240D1*
X11663Y10210D1*
X11662Y10180D1*
X11654Y10150D1*
X11638Y10120D1*
X11612Y10090D1*
X11580Y10060D1*
X11820Y10300D2*
X11879Y10270D1*
X11934Y10240D1*
X11984Y10210D1*
X12030Y10180D1*
X13380Y10270D2*
Y10240D1*
Y10210D1*
X13379Y10180D1*
X13375Y10150D1*
X13360Y10120D1*
X13327Y10090D1*
X13290Y10060D1*
X13530Y10300D2*
X13559Y10270D1*
X13585Y10240D1*
X13607Y10210D1*
X13625Y10180D1*
X13641Y10150D1*
X13656Y10120D1*
X13667Y10090D1*
X13675Y10060D1*
X13683Y10030D1*
X13691Y10000D1*
X13700Y9970D1*
X13705Y9940D1*
X13708Y9910D1*
X13709Y9880D1*
X13710Y9850D1*
Y9820D1*
X13709Y9790D1*
X13705Y9760D1*
X13698Y9730D1*
X13689Y9700D1*
X13680Y9670D1*
X13669Y9640D1*
X13656Y9610D1*
X13642Y9580D1*
X13627Y9550D1*
X13612Y9520D1*
X13596Y9490D1*
X13577Y9460D1*
X13555Y9430D1*
X13530Y9400D1*
X11490Y10270D2*
X11460Y10240D1*
X11430Y10210D1*
X11400Y10180D1*
X11486Y10150D1*
X11580Y10120D1*
X11550Y10270D2*
X11573Y10240D1*
X11589Y10210D1*
X11601Y10180D1*
X11519Y10150D1*
X11430Y10120D1*
X13140Y10270D2*
Y10240D1*
X13142Y10210D1*
X13156Y10180D1*
X13203Y10150D1*
X13260Y10120D1*
Y10270D2*
X13283Y10240D1*
X13299Y10210D1*
X13311Y10180D1*
X13229Y10150D1*
X13140Y10120D1*
X11310Y10240D2*
X11280Y10210D1*
X11250Y10180D1*
X11370Y10240D2*
Y10210D1*
X11371Y10180D1*
X11376Y10150D1*
X11388Y10120D1*
X11408Y10090D1*
X11430Y10060D1*
X13020Y10240D2*
X12990Y10210D1*
X12960Y10180D1*
X13080Y10240D2*
Y10210D1*
X13081Y10180D1*
X13086Y10150D1*
X13098Y10120D1*
X13118Y10090D1*
X13140Y10060D1*
X12090Y9760D2*
X12102Y9730D1*
X12117Y9700D1*
X12136Y9670D1*
X12179Y9640D1*
X12236Y9610D1*
X12300Y9580D1*
X12210Y9760D2*
X12248Y9730D1*
X12340Y9700D1*
X12450Y9670D1*
X11970Y9580D2*
X12000Y9550D1*
X12031Y9520D1*
X12068Y9490D1*
X12114Y9460D1*
X12174Y9430D1*
X12240Y9400D1*
X12060Y9580D2*
X12102Y9550D1*
X12156Y9520D1*
X12225Y9490D1*
X12300Y9460D1*
X12810Y9580D2*
X12768Y9550D1*
X12714Y9520D1*
X12645Y9490D1*
X12570Y9460D1*
X12900Y9580D2*
X12870Y9550D1*
X12839Y9520D1*
X12802Y9490D1*
X12756Y9460D1*
X12696Y9430D1*
X12630Y9400D1*
X19808Y5278D2*
D50*
X20310Y5398D1*
X19808Y5517D1*
X20310Y5637D1*
X19808Y5757D1*
Y5911D2*
X19832Y5935D1*
X19808Y5959D1*
X19783Y5935D1*
X19808Y5911D1*
X19975Y5935D2*
X20310D1*
X20059Y6114D2*
Y6390D1*
X19808Y6855D2*
Y6544D1*
X20310D1*
X20047D2*
Y6736D1*
X19808Y7010D2*
X19832Y7034D1*
X19808Y7058D1*
X19783Y7034D1*
X19808Y7010D1*
X19975Y7034D2*
X20310D1*
X23152Y5318D2*
Y5533D1*
X23127Y5605D1*
X23104Y5629D1*
X23056Y5653D1*
X23008D1*
X22961Y5629D1*
X22936Y5605D1*
X22912Y5533D1*
Y5318D1*
X23415D1*
X23152Y5485D2*
X23415Y5653D1*
X23027Y10069D2*
X22980Y10046D1*
X22931Y9998D1*
X22908Y9950D1*
Y9854D1*
X22931Y9806D1*
X22980Y9759D1*
X23027Y9734D1*
X23099Y9711D1*
X23219D1*
X23290Y9734D1*
X23338Y9759D1*
X23386Y9806D1*
X23410Y9854D1*
Y9950D1*
X23386Y9997D1*
X23338Y10046D1*
X23290Y10069D1*
X23219D1*
Y9950D1*
X22908Y7499D2*
X23147Y7690D1*
X23410D1*
X22908Y7881D2*
X23147Y7690D1*
X4229Y9907D2*
X4444D1*
X4515Y9931D1*
X4540Y9955D1*
X4564Y10003D1*
Y10075D1*
X4540Y10122D1*
X4515Y10147D1*
X4444Y10170D1*
X4229D1*
Y9668D1*
X4837Y10003D2*
X4790Y9979D1*
X4742Y9931D1*
X4718Y9859D1*
Y9812D1*
X4742Y9740D1*
X4790Y9692D1*
X4837Y9668D1*
X4909D1*
X4957Y9692D1*
X5005Y9740D1*
X5029Y9812D1*
Y9859D1*
X5005Y9931D1*
X4957Y9979D1*
X4909Y10003D1*
X4837D1*
X5183D2*
Y9668D1*
Y9859D2*
X5208Y9931D1*
X5255Y9979D1*
X5303Y10003D1*
X5375D1*
X5602Y10170D2*
Y9764D1*
X5625Y9692D1*
X5673Y9668D1*
X5721D1*
X5530Y10003D2*
X5697D1*
X5875Y9859D2*
X6162D1*
Y9907D1*
X6138Y9955D1*
X6115Y9979D1*
X6067Y10003D1*
X5995D1*
X5947Y9979D1*
X5899Y9931D1*
X5875Y9859D1*
Y9812D1*
X5899Y9740D1*
X5947Y9692D1*
X5995Y9668D1*
X6067D1*
X6115Y9692D1*
X6162Y9740D1*
X6317Y10003D2*
Y9668D1*
Y9859D2*
X6341Y9931D1*
X6388Y9979D1*
X6436Y10003D1*
X6508D1*
X7507Y10051D2*
X7484Y10099D1*
X7436Y10147D1*
X7388Y10170D1*
X7292D1*
X7244Y10147D1*
X7197Y10099D1*
X7172Y10051D1*
X7149Y9979D1*
Y9859D1*
X7172Y9788D1*
X7197Y9740D1*
X7244Y9692D1*
X7292Y9668D1*
X7388D1*
X7436Y9692D1*
X7484Y9740D1*
X7507Y9788D1*
X7662Y10003D2*
Y9764D1*
X7686Y9692D1*
X7734Y9668D1*
X7806D1*
X7853Y9692D1*
X7925Y9764D1*
Y10003D2*
Y9668D1*
X8342Y9931D2*
X8319Y9979D1*
X8247Y10003D1*
X8175D1*
X8103Y9979D1*
X8079Y9931D1*
X8103Y9884D1*
X8151Y9859D1*
X8271Y9835D1*
X8319Y9812D1*
X8342Y9764D1*
Y9740D1*
X8319Y9692D1*
X8247Y9668D1*
X8175D1*
X8103Y9692D1*
X8079Y9740D1*
X8569Y10170D2*
Y9764D1*
X8592Y9692D1*
X8640Y9668D1*
X8688D1*
X8497Y10003D2*
X8664D1*
X8962D2*
X8914Y9979D1*
X8866Y9931D1*
X8842Y9859D1*
Y9812D1*
X8866Y9740D1*
X8914Y9692D1*
X8962Y9668D1*
X9034D1*
X9082Y9692D1*
X9129Y9740D1*
X9154Y9812D1*
Y9859D1*
X9129Y9931D1*
X9082Y9979D1*
X9034Y10003D1*
X8962D1*
X9308D2*
Y9668D1*
Y9907D2*
X9380Y9979D1*
X9428Y10003D1*
X9499D1*
X9547Y9979D1*
X9571Y9907D1*
Y9668D1*
Y9907D2*
X9643Y9979D1*
X9691Y10003D1*
X9762D1*
X9810Y9979D1*
X9835Y9907D1*
Y9668D1*
X10252Y9931D2*
X10228Y9979D1*
X10157Y10003D1*
X10085D1*
X10013Y9979D1*
X9989Y9931D1*
X10013Y9884D1*
X10061Y9859D1*
X10180Y9835D1*
X10228Y9812D1*
X10252Y9764D1*
Y9740D1*
X10228Y9692D1*
X10157Y9668D1*
X10085D1*
X10013Y9692D1*
X9989Y9740D1*
X20682Y9495D2*
D51*
X20811D1*
X20854Y9509D1*
X20869Y9524D1*
X20883Y9552D1*
Y9581D1*
X20869Y9609D1*
X20854Y9624D1*
X20811Y9638D1*
X20682D1*
Y9337D1*
X20783Y9495D2*
X20883Y9337D1*
X20976Y9452D2*
X21148D1*
Y9480D1*
X21134Y9509D1*
X21119Y9524D1*
X21091Y9538D1*
X21048D1*
X21019Y9524D1*
X20990Y9495D1*
X20976Y9452D1*
Y9423D1*
X20990Y9380D1*
X21019Y9351D1*
X21048Y9337D1*
X21091D1*
X21119Y9351D1*
X21148Y9380D1*
X21398Y9495D2*
X21384Y9524D1*
X21341Y9538D1*
X21298D1*
X21255Y9524D1*
X21241Y9495D1*
X21255Y9466D1*
X21284Y9452D1*
X21355Y9437D1*
X21384Y9423D1*
X21398Y9394D1*
Y9380D1*
X21384Y9351D1*
X21341Y9337D1*
X21298D1*
X21255Y9351D1*
X21241Y9380D1*
X21491Y9452D2*
X21663D1*
Y9480D1*
X21649Y9509D1*
X21635Y9524D1*
X21606Y9538D1*
X21563D1*
X21534Y9524D1*
X21505Y9495D1*
X21491Y9452D1*
Y9423D1*
X21505Y9380D1*
X21534Y9351D1*
X21563Y9337D1*
X21606D1*
X21635Y9351D1*
X21663Y9380D1*
X21799Y9638D2*
Y9394D1*
X21813Y9351D1*
X21842Y9337D1*
X21871D1*
X21756Y9538D2*
X21856D1*
X19230Y11601D2*
D50*
X19397Y11410D1*
X19230Y11219D1*
X18930Y11601D2*
X19097Y11410D1*
X18930Y11219D1*
X18728Y10162D2*
D52*
X18326D1*
X18594Y9971D1*
Y10258D1*
X18460Y10381D2*
X18728Y10592D1*
X18460D2*
X18728Y10381D1*
Y11022D2*
X18326Y10868D1*
X18728Y10715D1*
X18594Y10773D2*
Y10964D1*
X18326Y11145D2*
X18613D1*
X18670Y11164D1*
X18708Y11203D1*
X18728Y11260D1*
Y11298D1*
X18708Y11356D1*
X18670Y11394D1*
X18613Y11413D1*
X18326D1*
Y11537D2*
X18728Y11805D1*
X18326D2*
X18728Y11537D1*
X21982Y9637D2*
D51*
X22097Y9738D1*
X22212Y9637D1*
X21982Y9487D2*
X22097Y9588D1*
X22212Y9487D1*
X19230Y10601D2*
D50*
X19397Y10410D1*
X19230Y10219D1*
X18930Y10601D2*
X19097Y10410D1*
X18930Y10219D1*
X16579Y4803D2*
X16722Y4468D1*
X16865Y4803D1*
X17020Y4659D2*
X17307D1*
Y4707D1*
X17283Y4755D1*
X17259Y4779D1*
X17211Y4803D1*
X17139D1*
X17092Y4779D1*
X17044Y4731D1*
X17020Y4659D1*
Y4612D1*
X17044Y4540D1*
X17092Y4492D1*
X17139Y4468D1*
X17211D1*
X17259Y4492D1*
X17307Y4540D1*
X17461Y4803D2*
Y4468D1*
Y4659D2*
X17485Y4731D1*
X17533Y4779D1*
X17581Y4803D1*
X17653D1*
X18122Y4970D2*
X18050Y4946D1*
X18002Y4874D1*
X17979Y4755D1*
Y4683D1*
X18002Y4564D1*
X18050Y4492D1*
X18122Y4468D1*
X18170D1*
X18242Y4492D1*
X18289Y4564D1*
X18314Y4683D1*
Y4755D1*
X18289Y4874D1*
X18242Y4946D1*
X18170Y4970D1*
X18122D1*
X18289Y4874D2*
X18002Y4564D1*
X18492Y4516D2*
X18468Y4492D1*
X18492Y4468D1*
X18516Y4492D1*
X18492Y4516D1*
X18695Y4850D2*
Y4874D1*
X18718Y4922D1*
X18742Y4946D1*
X18790Y4970D1*
X18886D1*
X18933Y4946D1*
X18957Y4922D1*
X18982Y4874D1*
Y4827D1*
X18957Y4779D1*
X18910Y4707D1*
X18670Y4468D1*
X19005D1*
X19447Y4731D2*
X19399Y4779D1*
X19351Y4803D1*
X19280D1*
X19232Y4779D1*
X19184Y4731D1*
X19160Y4659D1*
Y4612D1*
X19184Y4540D1*
X19232Y4492D1*
X19280Y4468D1*
X19351D1*
X19399Y4492D1*
X19447Y4540D1*
X12750Y5788D2*
D51*
X12735Y5745D1*
X12707Y5716D1*
X12664Y5702D1*
X12649D1*
X12606Y5716D1*
X12578Y5745D1*
X12563Y5788D1*
Y5802D1*
X12578Y5845D1*
X12606Y5874D1*
X12649Y5888D1*
X12664D1*
X12707Y5874D1*
X12735Y5845D1*
X12750Y5788D1*
Y5716D1*
X12735Y5644D1*
X12707Y5601D1*
X12664Y5587D1*
X12635D1*
X12592Y5601D1*
X12578Y5630D1*
X12842Y5587D2*
X13043Y5888D1*
X13136Y5831D2*
X13165Y5845D1*
X13208Y5888D1*
Y5587D1*
X13473Y5845D2*
X13459Y5874D1*
X13415Y5888D1*
X13387D1*
X13344Y5874D1*
X13315Y5831D1*
X13301Y5759D1*
Y5687D1*
X13315Y5630D1*
X13344Y5601D1*
X13387Y5587D1*
X13401D1*
X13444Y5601D1*
X13473Y5630D1*
X13487Y5673D1*
Y5687D1*
X13473Y5730D1*
X13444Y5759D1*
X13401Y5773D1*
X13387D1*
X13344Y5759D1*
X13315Y5730D1*
X13301Y5687D1*
X13580Y5587D2*
X13781Y5888D1*
X13873Y5831D2*
X13902Y5845D1*
X13945Y5888D1*
Y5587D1*
X14210Y5888D2*
X14067D1*
X14052Y5759D1*
X14067Y5773D1*
X14110Y5788D1*
X14153D1*
X14196Y5773D1*
X14225Y5745D1*
X14239Y5702D1*
Y5673D1*
X14225Y5630D1*
X14196Y5601D1*
X14153Y5587D1*
X14110D1*
X14067Y5601D1*
X14052Y5616D1*
X14038Y5644D1*
M02*
